<svg xmlns="http://www.w3.org/2000/svg" viewBox="0 0 1200 430"><defs><linearGradient id="sky" x1="0" y1="0" x2="1" y2="1"><stop stop-color="#8fd8ff"/><stop offset=".62" stop-color="#d8f4ff"/><stop offset="1" stop-color="#fff1df"/></linearGradient><linearGradient id="shirt" x1="0" y1="0" x2="1" y2="1"><stop stop-color="#0B3D91"/><stop offset="1" stop-color="#176de5"/></linearGradient><linearGradient id="bot" x1="0" y1="0" x2="1" y2="1"><stop stop-color="#fff"/><stop offset="1" stop-color="#e7f4ff"/></linearGradient><filter id="ds"><feDropShadow dx="0" dy="10" stdDeviation="10" flood-color="#0B3D91" flood-opacity=".18"/></filter></defs><rect width="1200" height="430" rx="34" fill="url(#sky)"/><g opacity=".95"><circle cx="102" cy="73" r="22" fill="#fff7b8"/><path d="M0 312c90-55 168-40 240-5s131 24 199 0 120-38 201-3 153 36 224 4 132-39 336 20v102H0z" fill="#69bd67"/><path d="M0 344c105-40 205-20 291 10 88 31 169 18 250-13 84-32 170-32 257 7 94 43 191 40 402-3v85H0z" fill="#9bdc84"/></g><g transform="translate(430 165)" filter="url(#ds)"><path d="M0 145h370v95H0z" fill="#f8fbff" stroke="#0B3D91" stroke-width="6"/><path d="M-12 146L80 72l95 74 88-80 119 80z" fill="#e8f6ff" stroke="#0B3D91" stroke-width="6"/><rect x="145" y="162" width="74" height="78" rx="12" fill="#ffefe1"/><rect x="36" y="170" width="46" height="40" rx="8" fill="#68c7f3"/><rect x="289" y="170" width="46" height="40" rx="8" fill="#ff9b48"/><circle cx="181" cy="119" r="17" fill="#ff7a00"/></g><g transform="translate(70 74)" filter="url(#ds)"><circle cx="150" cy="82" r="70" fill="#ffdcbf" stroke="#0B3D91" stroke-width="8"/><path d="M79 78c5-58 47-86 97-76 39 8 62 39 61 76-21-26-44-41-74-46-30-5-56 7-84 46z" fill="#4b2d22"/><circle cx="124" cy="88" r="8" fill="#10284b"/><circle cx="177" cy="88" r="8" fill="#10284b"/><path d="M124 117c18 18 36 18 54 0" fill="none" stroke="#ff7a00" stroke-width="8" stroke-linecap="round"/><path d="M80 266c5-74 34-119 70-119 37 0 66 45 72 119z" fill="url(#shirt)" stroke="#0B3D91" stroke-width="8"/><path d="M84 193l-52 45M217 194l57 33" stroke="#0B3D91" stroke-width="22" stroke-linecap="round"/><circle cx="28" cy="242" r="18" fill="#ffdcbf"/><circle cx="279" cy="230" r="18" fill="#ffdcbf"/><rect x="118" y="174" width="64" height="38" rx="12" fill="#fff"/><text x="150" y="201" text-anchor="middle" font-family="Arial" font-size="22" font-weight="900" fill="#0B3D91">BAY</text></g><g transform="translate(850 95)" filter="url(#ds)"><ellipse cx="120" cy="254" rx="95" ry="20" fill="#0B3D91" opacity=".12"/><rect x="28" y="65" width="184" height="170" rx="58" fill="url(#bot)" stroke="#0B3D91" stroke-width="8"/><rect x="58" y="25" width="124" height="58" rx="29" fill="#0B3D91"/><circle cx="120" cy="12" r="13" fill="#ff7a00"/><circle cx="84" cy="140" r="10" fill="#fff"/><circle cx="156" cy="140" r="10" fill="#fff"/><path d="M82 177c24 20 52 20 76 0" fill="none" stroke="#ff7a00" stroke-width="9" stroke-linecap="round"/><path d="M35 143L2 115M205 142l36-34" stroke="#0B3D91" stroke-width="15" stroke-linecap="round"/><circle cx="0" cy="111" r="17" fill="#ffb15c"/><circle cx="245" cy="105" r="17" fill="#61c9f7"/><rect x="83" y="198" width="74" height="50" rx="14" fill="#176de5"/></g><g fill="#fff7b1"><path d="M340 70l8 17 19 3-14 13 4 19-17-9-17 9 3-19-14-13 20-3z"/><path d="M1080 58l7 15 17 2-12 12 3 17-15-8-15 8 3-17-13-12 18-2z"/></g><g transform="translate(748 52) rotate(18)"><path d="M0 38L53 0l-13 61-18-7-8 16-5-22z" fill="#fff" stroke="#0B3D91" stroke-width="5"/><circle cx="33" cy="26" r="7" fill="#2ea8ff"/><path d="M7 49l-18 18 24-5" fill="#ff7a00"/></g></svg>