<svg xmlns="http://www.w3.org/2000/svg" viewBox="0 0 640 360" role="img"><defs><linearGradient id="bg" x1="0" y1="0" x2="1" y2="1"><stop stop-color="#e2d8ff"/><stop offset="1" stop-color="#f8f4ff"/></linearGradient><filter id="s" x="-30%" y="-30%" width="160%" height="160%"><feDropShadow dx="0" dy="12" stdDeviation="12" flood-color="#0b3d91" flood-opacity=".16"/></filter></defs><rect width="640" height="360" rx="40" fill="url(#bg)"/><circle cx="530" cy="72" r="54" fill="#fff" opacity=".72"/><circle cx="572" cy="290" r="90" fill="#fff" opacity=".28"/><g transform="translate(58 54)" filter="url(#s)"><rect x="44" y="60" width="170" height="154" rx="55" fill="#fff" stroke="#0b3d91" stroke-width="9"/><rect x="76" y="26" width="108" height="55" rx="26" fill="#0b3d91"/><circle cx="130" cy="16" r="13" fill="#ff7a00"/><circle cx="100" cy="132" r="8" fill="#0b3d91"/><circle cx="160" cy="132" r="8" fill="#0b3d91"/><path d="M102 168c20 18 38 18 58 0" fill="none" stroke="#ff7a00" stroke-width="8" stroke-linecap="round"/><rect x="92" y="194" width="78" height="38" rx="10" fill="#176de5"/><text x="131" y="219" font-family="Arial" font-size="18" font-weight="900" text-anchor="middle" fill="#fff">BAY</text></g><g transform="translate(360 66)" filter="url(#s)"><rect width="210" height="210" rx="44" fill="#fff" opacity=".92"/><text x="105" y="132" font-family="Arial,'Noto Sans Thai',sans-serif" font-size="82" font-weight="900" text-anchor="middle" fill="#7b5ce1">⌘</text></g><path d="M342 286h224" stroke="#7b5ce1" stroke-width="16" stroke-linecap="round" opacity=".5"/></svg>