<svg xmlns="http://www.w3.org/2000/svg" viewBox="0 0 640 260" role="img"><defs><linearGradient id="bg" x1="0" y1="0" x2="1" y2="1"><stop stop-color="#dff3ff"/><stop offset="1" stop-color="#fff0df"/></linearGradient></defs><rect width="640" height="260" rx="36" fill="url(#bg)"/><rect x="330" y="48" width="246" height="132" rx="18" fill="#fff" stroke="#0b3d91" stroke-width="8"/><rect x="357" y="75" width="82" height="54" rx="8" fill="#75cef8"/><rect x="464" y="75" width="82" height="54" rx="8" fill="#ffb36a"/><path d="M304 74l150-58 150 58" fill="#fff" stroke="#0b3d91" stroke-width="8"/><g transform="translate(55 34)"><circle cx="94" cy="66" r="42" fill="#ffe1c4" stroke="#0b3d91" stroke-width="7"/><path d="M50 61c5-48 83-57 91 4-23-19-50-20-91-4z" fill="#4a2b23"/><circle cx="80" cy="72" r="6" fill="#0b3d91"/><circle cx="108" cy="72" r="6" fill="#0b3d91"/><path d="M78 95c11 9 22 9 33 0" fill="none" stroke="#ff7a00" stroke-width="6" stroke-linecap="round"/><path d="M40 188c7-65 36-86 62-86s57 22 64 86z" fill="#fff" stroke="#0b3d91" stroke-width="7"/><rect x="75" y="128" width="54" height="30" rx="8" fill="#176de5"/></g><g transform="translate(182 70)"><rect x="12" y="35" width="100" height="90" rx="31" fill="#fff" stroke="#0b3d91" stroke-width="7"/><rect x="31" y="16" width="63" height="32" rx="16" fill="#0b3d91"/><circle cx="48" cy="75" r="5" fill="#0b3d91"/><circle cx="77" cy="75" r="5" fill="#0b3d91"/><path d="M49 96c9 8 18 8 27 0" fill="none" stroke="#ff7a00" stroke-width="6" stroke-linecap="round"/></g></svg>