<svg xmlns="http://www.w3.org/2000/svg" viewBox="0 0 640 360" role="img"><defs><linearGradient id="bg" x1="0" y1="0" x2="1" y2="1"><stop stop-color="#ffd8e3"/><stop offset="1" stop-color="#fff4f7"/></linearGradient><filter id="s" x="-30%" y="-30%" width="160%" height="160%"><feDropShadow dx="0" dy="12" stdDeviation="12" flood-color="#0b3d91" flood-opacity=".16"/></filter></defs><rect width="640" height="360" rx="40" fill="url(#bg)"/><circle cx="530" cy="72" r="54" fill="#fff" opacity=".72"/><circle cx="572" cy="290" r="90" fill="#fff" opacity=".28"/><g transform="translate(52 64)" filter="url(#s)"><circle cx="120" cy="92" r="68" fill="#ffe1c4" stroke="#0b3d91" stroke-width="8"/><path d="M55 82c8-74 128-85 140 4-35-28-76-31-140-4z" fill="#4a2b23"/><circle cx="96" cy="99" r="8" fill="#0b3d91"/><circle cx="144" cy="99" r="8" fill="#0b3d91"/><path d="M98 132c15 12 30 12 45 0" fill="none" stroke="#ff7a00" stroke-width="8" stroke-linecap="round"/><path d="M50 240c10-82 52-112 84-112 42 0 76 35 88 112z" fill="#fff" stroke="#0b3d91" stroke-width="8"/><rect x="99" y="160" width="70" height="40" rx="10" fill="#176de5"/><text x="134" y="188" font-family="Arial" font-size="20" font-weight="900" text-anchor="middle" fill="#fff">BAY</text></g><g transform="translate(360 66)" filter="url(#s)"><rect width="210" height="210" rx="44" fill="#fff" opacity=".92"/><text x="105" y="132" font-family="Arial,'Noto Sans Thai',sans-serif" font-size="82" font-weight="900" text-anchor="middle" fill="#f15b83">ก</text></g><path d="M342 286h224" stroke="#f15b83" stroke-width="16" stroke-linecap="round" opacity=".5"/></svg>